<svg width="70.065" height="10.791" viewBox="0 0 70.065 10.791" xmlns="http://www.w3.org/2000/svg"><g id="svgGroup" stroke-linecap="round" fill-rule="evenodd" font-size="9pt" stroke="#000" stroke-width="0.1mm" fill="#000" style="stroke:#000;stroke-width:0.1mm;fill:#000"><path d="M 5.338 5.954 L 6.094 6.252 A 3.994 3.994 0 0 1 5.7 7.155 A 3.168 3.168 0 0 1 5.034 7.944 Q 4.297 8.569 3.18 8.569 A 3.524 3.524 0 0 1 2.518 8.51 Q 2.066 8.424 1.708 8.211 Q 1.105 7.852 0.72 7.262 Q 0.336 6.671 0.168 5.897 A 7.546 7.546 0 0 1 0 4.291 A 7.546 7.546 0 0 1 0.168 2.685 A 4.406 4.406 0 0 1 0.462 1.788 A 3.756 3.756 0 0 1 0.72 1.314 A 2.958 2.958 0 0 1 1.708 0.359 A 2.463 2.463 0 0 1 2.47 0.069 Q 2.779 0.004 3.133 0 A 4.161 4.161 0 0 1 3.18 0 A 3.616 3.616 0 0 1 3.789 0.049 Q 4.179 0.115 4.494 0.273 Q 5.04 0.546 5.3 1.105 L 5.3 0.14 L 6.043 0.14 L 6.043 2.856 L 5.3 2.856 A 2.071 2.071 0 0 0 5.132 2.028 Q 4.964 1.638 4.678 1.352 A 2.061 2.061 0 0 0 4.002 0.905 A 2.125 2.125 0 0 0 3.18 0.743 Q 2.52 0.743 2.083 1.048 A 1.503 1.503 0 0 0 2.066 1.06 A 2.304 2.304 0 0 0 1.392 1.828 A 2.692 2.692 0 0 0 1.358 1.892 A 3.834 3.834 0 0 0 1.039 2.755 A 4.504 4.504 0 0 0 0.981 3.034 Q 0.87 3.663 0.87 4.291 A 7.226 7.226 0 0 0 0.981 5.545 A 4.11 4.11 0 0 0 1.18 6.285 A 3.465 3.465 0 0 0 1.358 6.681 A 2.373 2.373 0 0 0 2.066 7.506 A 1.63 1.63 0 0 0 2.69 7.778 A 2.331 2.331 0 0 0 3.18 7.827 A 1.951 1.951 0 0 0 4.852 6.962 Q 5.143 6.554 5.338 5.954 Z M 20.198 2.628 L 19.913 3.339 A 2.156 2.156 0 0 0 19.328 3.149 A 3 3 0 0 0 18.795 3.104 Q 18.262 3.104 17.843 3.333 A 2.289 2.289 0 0 0 17.132 3.932 Q 16.84 4.304 16.685 4.783 Q 16.529 5.262 16.529 5.77 L 16.529 7.681 L 17.869 7.681 L 17.869 8.423 L 14.32 8.423 L 14.32 7.681 L 15.66 7.681 L 15.66 3.25 L 14.32 3.25 L 14.32 2.507 L 16.529 2.507 L 16.529 3.993 A 2.906 2.906 0 0 1 16.976 3.173 Q 17.54 2.468 18.51 2.38 A 3.158 3.158 0 0 1 18.795 2.368 A 6.005 6.005 0 0 1 19.155 2.378 Q 19.329 2.388 19.481 2.41 A 3.212 3.212 0 0 1 19.579 2.425 A 2.15 2.15 0 0 1 20.194 2.626 A 2.128 2.128 0 0 1 20.198 2.628 Z M 55.682 2.628 L 55.396 3.339 A 2.156 2.156 0 0 0 54.811 3.149 A 3 3 0 0 0 54.279 3.104 Q 53.746 3.104 53.327 3.333 A 2.289 2.289 0 0 0 52.616 3.932 Q 52.324 4.304 52.168 4.783 Q 52.013 5.262 52.013 5.77 L 52.013 7.681 L 53.352 7.681 L 53.352 8.423 L 49.804 8.423 L 49.804 7.681 L 51.143 7.681 L 51.143 3.25 L 49.804 3.25 L 49.804 2.507 L 52.013 2.507 L 52.013 3.993 A 2.906 2.906 0 0 1 52.46 3.173 Q 53.023 2.468 53.993 2.38 A 3.158 3.158 0 0 1 54.279 2.368 A 6.005 6.005 0 0 1 54.638 2.378 Q 54.812 2.388 54.964 2.41 A 3.212 3.212 0 0 1 55.063 2.425 A 2.15 2.15 0 0 1 55.677 2.626 A 2.128 2.128 0 0 1 55.682 2.628 Z M 62.778 2.628 L 62.493 3.339 A 2.156 2.156 0 0 0 61.908 3.149 A 3 3 0 0 0 61.376 3.104 Q 60.842 3.104 60.423 3.333 A 2.289 2.289 0 0 0 59.712 3.932 Q 59.42 4.304 59.265 4.783 Q 59.109 5.262 59.109 5.77 L 59.109 7.681 L 60.449 7.681 L 60.449 8.423 L 56.9 8.423 L 56.9 7.681 L 58.24 7.681 L 58.24 3.25 L 56.9 3.25 L 56.9 2.507 L 59.109 2.507 L 59.109 3.993 A 2.906 2.906 0 0 1 59.556 3.173 Q 60.12 2.468 61.09 2.38 A 3.158 3.158 0 0 1 61.376 2.368 A 6.005 6.005 0 0 1 61.735 2.378 Q 61.909 2.388 62.061 2.41 A 3.212 3.212 0 0 1 62.159 2.425 A 2.15 2.15 0 0 1 62.774 2.626 A 2.128 2.128 0 0 1 62.778 2.628 Z M 13.203 5.77 L 8.093 5.77 A 2.756 2.756 0 0 0 8.257 6.483 A 2.104 2.104 0 0 0 8.779 7.268 A 2.009 2.009 0 0 0 9.864 7.792 A 2.801 2.801 0 0 0 10.315 7.827 A 2.782 2.782 0 0 0 10.982 7.75 A 2.298 2.298 0 0 0 11.502 7.554 A 2.417 2.417 0 0 0 11.908 7.289 A 1.761 1.761 0 0 0 12.283 6.875 L 12.892 7.293 A 3.247 3.247 0 0 1 12.27 7.956 A 2.862 2.862 0 0 1 11.832 8.242 Q 11.274 8.539 10.481 8.567 A 4.755 4.755 0 0 1 10.315 8.569 A 3.58 3.58 0 0 1 9.507 8.481 A 3.065 3.065 0 0 1 9.058 8.341 A 2.96 2.96 0 0 1 8.11 7.741 A 2.856 2.856 0 0 1 8.071 7.703 Q 7.655 7.293 7.427 6.729 A 3.129 3.129 0 0 1 7.221 5.892 A 3.858 3.858 0 0 1 7.198 5.472 A 3.846 3.846 0 0 1 7.279 4.672 A 3.293 3.293 0 0 1 7.405 4.231 A 2.861 2.861 0 0 1 7.895 3.367 A 2.717 2.717 0 0 1 8.001 3.247 A 2.692 2.692 0 0 1 8.907 2.618 A 3.094 3.094 0 0 1 8.95 2.599 A 3.032 3.032 0 0 1 9.776 2.391 A 3.785 3.785 0 0 1 10.201 2.368 Q 10.956 2.368 11.521 2.622 A 2.648 2.648 0 0 1 12.341 3.188 A 2.537 2.537 0 0 1 12.464 3.323 A 2.783 2.783 0 0 1 12.934 4.129 A 3.343 3.343 0 0 1 13.022 4.393 A 4.507 4.507 0 0 1 13.177 5.211 A 5.711 5.711 0 0 1 13.203 5.77 Z M 48.687 5.77 L 43.577 5.77 A 2.756 2.756 0 0 0 43.74 6.483 A 2.104 2.104 0 0 0 44.262 7.268 A 2.009 2.009 0 0 0 45.348 7.792 A 2.801 2.801 0 0 0 45.798 7.827 A 2.782 2.782 0 0 0 46.465 7.75 A 2.298 2.298 0 0 0 46.985 7.554 A 2.417 2.417 0 0 0 47.391 7.289 A 1.761 1.761 0 0 0 47.766 6.875 L 48.376 7.293 A 3.247 3.247 0 0 1 47.753 7.956 A 2.862 2.862 0 0 1 47.315 8.242 Q 46.757 8.539 45.965 8.567 A 4.755 4.755 0 0 1 45.798 8.569 A 3.58 3.58 0 0 1 44.991 8.481 A 3.065 3.065 0 0 1 44.542 8.341 A 2.96 2.96 0 0 1 43.594 7.741 A 2.856 2.856 0 0 1 43.554 7.703 Q 43.139 7.293 42.91 6.729 A 3.129 3.129 0 0 1 42.704 5.892 A 3.858 3.858 0 0 1 42.682 5.472 A 3.846 3.846 0 0 1 42.762 4.672 A 3.293 3.293 0 0 1 42.888 4.231 A 2.861 2.861 0 0 1 43.378 3.367 A 2.717 2.717 0 0 1 43.485 3.247 A 2.692 2.692 0 0 1 44.39 2.618 A 3.094 3.094 0 0 1 44.434 2.599 A 3.032 3.032 0 0 1 45.26 2.391 A 3.785 3.785 0 0 1 45.684 2.368 Q 46.439 2.368 47.004 2.622 A 2.648 2.648 0 0 1 47.824 3.188 A 2.537 2.537 0 0 1 47.947 3.323 A 2.783 2.783 0 0 1 48.417 4.129 A 3.343 3.343 0 0 1 48.506 4.393 A 4.507 4.507 0 0 1 48.66 5.211 A 5.711 5.711 0 0 1 48.687 5.77 Z M 27.022 0.14 L 27.022 8.423 L 26.146 8.423 L 26.146 7.877 A 2.734 2.734 0 0 1 25.324 8.392 Q 24.876 8.569 24.407 8.569 A 3.726 3.726 0 0 1 23.709 8.507 A 2.944 2.944 0 0 1 23.144 8.341 A 2.73 2.73 0 0 1 22.431 7.919 A 2.504 2.504 0 0 1 22.201 7.703 A 2.758 2.758 0 0 1 21.669 6.871 A 3.226 3.226 0 0 1 21.611 6.722 A 3.494 3.494 0 0 1 21.419 5.825 A 4.207 4.207 0 0 1 21.404 5.472 A 3.861 3.861 0 0 1 21.493 4.631 A 3.364 3.364 0 0 1 21.611 4.224 A 2.919 2.919 0 0 1 21.978 3.513 A 2.616 2.616 0 0 1 22.201 3.241 A 2.643 2.643 0 0 1 23.023 2.652 A 3.089 3.089 0 0 1 23.144 2.599 A 3.01 3.01 0 0 1 23.919 2.398 A 3.849 3.849 0 0 1 24.407 2.368 A 2.587 2.587 0 0 1 25.324 2.536 A 2.585 2.585 0 0 1 26.146 3.041 L 26.146 0.882 L 24.965 0.882 L 24.965 0.14 L 27.022 0.14 Z M 36.791 7.89 L 36.791 10.791 L 35.921 10.791 L 35.921 2.507 L 36.791 2.507 L 36.791 3.053 A 3.076 3.076 0 0 1 37.506 2.591 A 2.428 2.428 0 0 1 38.524 2.368 A 3.596 3.596 0 0 1 39.234 2.435 A 2.915 2.915 0 0 1 39.762 2.593 A 2.646 2.646 0 0 1 40.704 3.234 A 2.897 2.897 0 0 1 41.261 4.101 A 3.358 3.358 0 0 1 41.311 4.224 A 3.42 3.42 0 0 1 41.518 5.213 A 4.025 4.025 0 0 1 41.526 5.472 A 3.84 3.84 0 0 1 41.458 6.21 A 3.14 3.14 0 0 1 41.311 6.729 A 2.949 2.949 0 0 1 40.867 7.516 A 2.737 2.737 0 0 1 40.704 7.703 A 2.714 2.714 0 0 1 39.796 8.326 A 3.098 3.098 0 0 1 39.762 8.341 Q 39.21 8.569 38.524 8.569 A 2.494 2.494 0 0 1 37.613 8.398 A 2.698 2.698 0 0 1 36.875 7.962 A 3.093 3.093 0 0 1 36.791 7.89 Z M 33.243 7.681 L 33.243 8.423 L 29.694 8.423 L 29.694 7.681 L 31.034 7.681 L 31.034 3.25 L 29.694 3.25 L 29.694 2.507 L 31.91 2.507 L 31.91 7.681 L 33.243 7.681 Z M 69.996 6.223 A 3.786 3.786 0 0 0 70.065 5.484 A 4.008 4.008 0 0 0 70.06 5.276 A 3.453 3.453 0 0 0 69.846 4.231 A 3.163 3.163 0 0 0 69.804 4.123 A 2.722 2.722 0 0 0 69.218 3.241 A 2.784 2.784 0 0 0 69.059 3.093 A 2.971 2.971 0 0 0 68.237 2.599 Q 67.666 2.368 66.961 2.368 Q 66.27 2.368 65.698 2.599 A 3.33 3.33 0 0 0 65.627 2.629 A 2.901 2.901 0 0 0 64.718 3.241 A 2.612 2.612 0 0 0 64.524 3.456 A 2.826 2.826 0 0 0 64.089 4.231 A 3.282 3.282 0 0 0 63.983 4.565 A 3.649 3.649 0 0 0 63.87 5.484 A 4.02 4.02 0 0 0 63.892 5.91 A 3.238 3.238 0 0 0 64.089 6.741 A 3.104 3.104 0 0 0 64.096 6.759 A 2.713 2.713 0 0 0 64.718 7.709 Q 65.127 8.112 65.698 8.341 A 3.064 3.064 0 0 0 66.182 8.489 A 3.639 3.639 0 0 0 66.961 8.569 A 3.981 3.981 0 0 0 67.399 8.546 A 3.191 3.191 0 0 0 68.237 8.341 A 3.343 3.343 0 0 0 68.343 8.296 A 2.899 2.899 0 0 0 69.218 7.709 Q 69.627 7.306 69.846 6.741 A 3.105 3.105 0 0 0 69.996 6.223 Z M 69.196 5.484 A 3.023 3.023 0 0 0 69.138 4.881 A 2.566 2.566 0 0 0 69.047 4.548 A 2.18 2.18 0 0 0 68.605 3.796 A 2.067 2.067 0 0 0 67.898 3.288 A 2.146 2.146 0 0 0 67.277 3.122 A 2.689 2.689 0 0 0 66.961 3.104 A 2.529 2.529 0 0 0 66.423 3.159 A 2.063 2.063 0 0 0 66.025 3.288 A 2.006 2.006 0 0 0 65.342 3.776 A 1.958 1.958 0 0 0 65.324 3.796 A 2.234 2.234 0 0 0 64.889 4.548 A 2.696 2.696 0 0 0 64.752 5.205 A 3.244 3.244 0 0 0 64.74 5.484 A 3.023 3.023 0 0 0 64.798 6.088 A 2.566 2.566 0 0 0 64.889 6.421 Q 65.038 6.849 65.324 7.16 A 1.988 1.988 0 0 0 65.948 7.614 A 2.306 2.306 0 0 0 66.025 7.649 A 2.2 2.2 0 0 0 66.631 7.808 A 2.772 2.772 0 0 0 66.961 7.827 A 2.626 2.626 0 0 0 67.485 7.777 A 2.121 2.121 0 0 0 67.898 7.649 A 2.103 2.103 0 0 0 68.511 7.254 A 1.996 1.996 0 0 0 68.605 7.16 A 2.036 2.036 0 0 0 69.027 6.474 A 2.342 2.342 0 0 0 69.047 6.421 A 2.696 2.696 0 0 0 69.184 5.764 A 3.244 3.244 0 0 0 69.196 5.484 Z M 26.146 7.046 L 26.146 3.885 A 2.617 2.617 0 0 0 25.755 3.529 A 2.065 2.065 0 0 0 25.33 3.288 A 2.407 2.407 0 0 0 24.394 3.104 A 2.498 2.498 0 0 0 23.919 3.147 A 1.907 1.907 0 0 0 23.477 3.288 Q 23.08 3.472 22.814 3.79 A 2.123 2.123 0 0 0 22.456 4.404 A 2.48 2.48 0 0 0 22.41 4.535 A 2.899 2.899 0 0 0 22.287 5.162 A 3.52 3.52 0 0 0 22.274 5.472 A 3.306 3.306 0 0 0 22.325 6.061 A 2.763 2.763 0 0 0 22.41 6.408 Q 22.547 6.836 22.814 7.154 A 1.89 1.89 0 0 0 23.464 7.65 A 2.172 2.172 0 0 0 23.477 7.655 A 1.948 1.948 0 0 0 24.006 7.811 A 2.575 2.575 0 0 0 24.394 7.839 A 2.294 2.294 0 0 0 26.003 7.188 A 3.104 3.104 0 0 0 26.146 7.046 Z M 36.791 3.885 L 36.791 7.059 A 2.744 2.744 0 0 0 37.157 7.393 A 2.038 2.038 0 0 0 37.6 7.649 A 2.365 2.365 0 0 0 38.447 7.826 A 2.716 2.716 0 0 0 38.524 7.827 A 2.498 2.498 0 0 0 38.999 7.784 A 1.907 1.907 0 0 0 39.441 7.643 A 1.957 1.957 0 0 0 40.111 7.141 A 2.086 2.086 0 0 0 40.491 6.481 A 2.418 2.418 0 0 0 40.52 6.395 A 2.93 2.93 0 0 0 40.65 5.686 A 3.441 3.441 0 0 0 40.657 5.472 A 3.19 3.19 0 0 0 40.582 4.77 A 2.85 2.85 0 0 0 40.52 4.542 Q 40.384 4.107 40.111 3.79 Q 39.838 3.472 39.441 3.288 A 1.948 1.948 0 0 0 38.912 3.132 A 2.575 2.575 0 0 0 38.524 3.104 A 2.345 2.345 0 0 0 37.737 3.235 A 2.217 2.217 0 0 0 37.6 3.288 A 2.142 2.142 0 0 0 37.115 3.582 A 2.872 2.872 0 0 0 36.791 3.885 Z M 8.106 5.027 L 12.283 5.027 Q 12.137 4.056 11.578 3.58 A 1.98 1.98 0 0 0 10.475 3.118 A 2.604 2.604 0 0 0 10.201 3.104 A 2.256 2.256 0 0 0 9.678 3.163 A 1.974 1.974 0 0 0 9.426 3.241 A 1.928 1.928 0 0 0 8.798 3.631 A 2.159 2.159 0 0 0 8.394 4.145 A 2.494 2.494 0 0 0 8.341 4.243 A 2.284 2.284 0 0 0 8.113 4.974 A 2.587 2.587 0 0 0 8.106 5.027 Z M 43.589 5.027 L 47.766 5.027 Q 47.62 4.056 47.062 3.58 A 1.98 1.98 0 0 0 45.958 3.118 A 2.604 2.604 0 0 0 45.684 3.104 A 2.256 2.256 0 0 0 45.162 3.163 A 1.974 1.974 0 0 0 44.91 3.241 A 1.928 1.928 0 0 0 44.281 3.631 A 2.159 2.159 0 0 0 43.878 4.145 A 2.494 2.494 0 0 0 43.824 4.243 A 2.284 2.284 0 0 0 43.596 4.974 A 2.587 2.587 0 0 0 43.589 5.027 Z M 32.062 0.14 L 32.062 1.327 L 30.881 1.327 L 30.881 0.14 L 32.062 0.14 Z" vector-effect="non-scaling-stroke"/></g></svg>