<svg width="71.595" height="14.4" viewBox="0 0 71.595 14.4" xmlns="http://www.w3.org/2000/svg"><g id="svgGroup" stroke-linecap="round" fill-rule="evenodd" font-size="9pt" stroke="#000" stroke-width="0.25mm" fill="#000" style="stroke:#000;stroke-width:0.25mm;fill:#000"><path d="M 7.335 0.96 L 6.9 2.16 Q 6.435 1.935 5.948 1.8 Q 5.529 1.684 4.982 1.668 A 6.106 6.106 0 0 0 4.8 1.665 A 3.176 3.176 0 0 0 3.614 1.883 A 2.997 2.997 0 0 0 3.083 2.16 A 3.175 3.175 0 0 0 2.128 3.147 A 4.047 4.047 0 0 0 1.89 3.585 Q 1.455 4.515 1.455 5.835 A 6.279 6.279 0 0 0 1.547 6.938 A 4.639 4.639 0 0 0 1.883 8.04 A 3.852 3.852 0 0 0 2.421 8.914 A 3.213 3.213 0 0 0 3.068 9.51 A 2.955 2.955 0 0 0 4.739 10.034 A 3.583 3.583 0 0 0 4.8 10.035 Q 5.535 10.035 6.075 9.855 Q 6.615 9.675 7.125 9.39 L 7.56 10.575 Q 7.005 10.875 6.293 11.077 Q 5.626 11.267 4.756 11.279 A 8.613 8.613 0 0 1 4.635 11.28 A 4.858 4.858 0 0 1 3.236 11.085 A 4.194 4.194 0 0 1 2.22 10.628 A 4.29 4.29 0 0 1 0.739 9.061 A 5.237 5.237 0 0 1 0.585 8.768 A 5.642 5.642 0 0 1 0.12 7.31 Q 0.004 6.67 0 5.942 A 9.43 9.43 0 0 1 0 5.895 Q 0 4.29 0.593 3.053 A 4.745 4.745 0 0 1 1.639 1.608 A 4.479 4.479 0 0 1 2.273 1.118 A 4.406 4.406 0 0 1 4.175 0.456 A 5.594 5.594 0 0 1 4.815 0.42 A 6.846 6.846 0 0 1 5.574 0.46 A 5.28 5.28 0 0 1 6.18 0.563 A 5.734 5.734 0 0 1 7.301 0.944 A 5.351 5.351 0 0 1 7.335 0.96 Z M 27.765 4.08 L 27.765 0 L 29.115 0 L 29.115 9.21 A 1.822 1.822 0 0 0 29.13 9.455 Q 29.18 9.82 29.393 9.953 Q 29.67 10.125 30 10.125 L 29.715 11.175 A 2.678 2.678 0 0 1 29.076 11.105 Q 28.226 10.896 27.983 10.063 A 2.011 2.011 0 0 1 27.975 10.035 Q 27.645 10.5 27.053 10.89 A 2.271 2.271 0 0 1 26.301 11.203 Q 26.003 11.27 25.659 11.279 A 4.037 4.037 0 0 1 25.56 11.28 Q 24.6 11.28 23.805 10.785 Q 23.01 10.29 22.545 9.383 A 4.13 4.13 0 0 1 22.157 8.191 A 5.583 5.583 0 0 1 22.08 7.245 Q 22.08 6.06 22.553 5.13 A 4.094 4.094 0 0 1 23.245 4.141 A 3.628 3.628 0 0 1 23.813 3.66 Q 24.6 3.12 25.545 3.12 A 3.246 3.246 0 0 1 26.186 3.18 A 2.391 2.391 0 0 1 26.888 3.435 Q 27.318 3.676 27.604 3.926 A 2.489 2.489 0 0 1 27.765 4.08 Z M 37.185 14.4 L 35.835 14.4 L 35.835 5.295 Q 35.835 4.785 35.588 4.568 A 0.858 0.858 0 0 0 35.169 4.369 A 1.199 1.199 0 0 0 34.95 4.35 L 35.235 3.3 A 2.629 2.629 0 0 1 35.869 3.371 Q 36.703 3.578 36.96 4.395 A 1.714 1.714 0 0 1 37.079 4.239 Q 37.221 4.072 37.448 3.87 A 2.835 2.835 0 0 1 37.853 3.572 A 3.835 3.835 0 0 1 38.288 3.345 Q 38.79 3.12 39.435 3.12 Q 40.335 3.12 41.123 3.593 A 3.349 3.349 0 0 1 42.199 4.638 A 4.12 4.12 0 0 1 42.39 4.958 A 3.853 3.853 0 0 1 42.765 6.014 Q 42.87 6.527 42.87 7.125 A 5.485 5.485 0 0 1 42.765 8.225 A 4.216 4.216 0 0 1 42.39 9.307 Q 41.91 10.245 41.138 10.763 Q 40.365 11.28 39.465 11.28 Q 38.775 11.28 38.175 11.003 Q 37.595 10.734 37.211 10.389 A 2.801 2.801 0 0 1 37.185 10.365 L 37.185 14.4 Z M 15.225 7.755 L 9.765 7.755 A 3.613 3.613 0 0 0 9.936 8.509 Q 10.114 9.018 10.446 9.379 A 2.247 2.247 0 0 0 10.53 9.465 A 2.122 2.122 0 0 0 11.674 10.037 A 3.003 3.003 0 0 0 12.195 10.08 Q 12.87 10.08 13.41 9.938 Q 13.95 9.795 14.445 9.57 L 14.76 10.725 A 6.115 6.115 0 0 1 14.11 10.969 A 7.779 7.779 0 0 1 13.545 11.123 A 5.837 5.837 0 0 1 12.781 11.245 A 7.804 7.804 0 0 1 12.03 11.28 A 4.248 4.248 0 0 1 10.868 11.129 A 3.166 3.166 0 0 1 9.368 10.208 Q 8.496 9.256 8.398 7.627 A 7.069 7.069 0 0 1 8.385 7.2 A 5.304 5.304 0 0 1 8.51 6.027 A 4.326 4.326 0 0 1 8.828 5.108 A 3.696 3.696 0 0 1 9.58 4.045 A 3.433 3.433 0 0 1 10.065 3.652 Q 10.86 3.12 11.91 3.12 Q 12.928 3.12 13.633 3.519 A 2.582 2.582 0 0 1 13.778 3.608 Q 14.52 4.095 14.895 4.92 A 4.228 4.228 0 0 1 15.259 6.4 A 5.015 5.015 0 0 1 15.27 6.735 A 11.281 11.281 0 0 1 15.226 7.74 A 10.23 10.23 0 0 1 15.225 7.755 Z M 51.06 7.755 L 45.6 7.755 A 3.613 3.613 0 0 0 45.771 8.509 Q 45.949 9.018 46.281 9.379 A 2.247 2.247 0 0 0 46.365 9.465 A 2.122 2.122 0 0 0 47.509 10.037 A 3.003 3.003 0 0 0 48.03 10.08 Q 48.705 10.08 49.245 9.938 Q 49.785 9.795 50.28 9.57 L 50.595 10.725 A 6.115 6.115 0 0 1 49.945 10.969 A 7.779 7.779 0 0 1 49.38 11.123 A 5.837 5.837 0 0 1 48.616 11.245 A 7.804 7.804 0 0 1 47.865 11.28 A 4.248 4.248 0 0 1 46.703 11.129 A 3.166 3.166 0 0 1 45.203 10.208 Q 44.331 9.256 44.233 7.627 A 7.069 7.069 0 0 1 44.22 7.2 A 5.304 5.304 0 0 1 44.345 6.027 A 4.326 4.326 0 0 1 44.663 5.108 A 3.696 3.696 0 0 1 45.415 4.045 A 3.433 3.433 0 0 1 45.9 3.652 Q 46.695 3.12 47.745 3.12 Q 48.763 3.12 49.468 3.519 A 2.582 2.582 0 0 1 49.613 3.608 Q 50.355 4.095 50.73 4.92 A 4.228 4.228 0 0 1 51.094 6.4 A 5.015 5.015 0 0 1 51.105 6.735 A 11.281 11.281 0 0 1 51.061 7.74 A 10.23 10.23 0 0 1 51.06 7.755 Z M 18.42 11.1 L 17.07 11.1 L 17.07 3.3 L 18.375 3.3 L 18.375 4.995 Q 18.57 4.5 18.9 4.073 Q 19.23 3.645 19.725 3.383 A 2.223 2.223 0 0 1 20.427 3.154 A 2.919 2.919 0 0 1 20.88 3.12 Q 21.105 3.12 21.33 3.143 A 2.846 2.846 0 0 1 21.488 3.163 Q 21.563 3.174 21.627 3.189 A 1.322 1.322 0 0 1 21.705 3.21 L 21.3 4.605 A 1.464 1.464 0 0 0 20.978 4.513 Q 20.829 4.488 20.66 4.485 A 2.487 2.487 0 0 0 20.625 4.485 A 1.944 1.944 0 0 0 19.631 4.762 A 2.342 2.342 0 0 0 19.568 4.8 Q 19.068 5.113 18.747 5.766 A 3.416 3.416 0 0 0 18.743 5.775 Q 18.42 6.435 18.42 7.455 L 18.42 11.1 Z M 54.255 11.1 L 52.905 11.1 L 52.905 3.3 L 54.21 3.3 L 54.21 4.995 Q 54.405 4.5 54.735 4.073 Q 55.065 3.645 55.56 3.383 A 2.223 2.223 0 0 1 56.262 3.154 A 2.919 2.919 0 0 1 56.715 3.12 Q 56.94 3.12 57.165 3.143 A 2.846 2.846 0 0 1 57.323 3.163 Q 57.398 3.174 57.462 3.189 A 1.322 1.322 0 0 1 57.54 3.21 L 57.135 4.605 A 1.464 1.464 0 0 0 56.813 4.513 Q 56.664 4.488 56.495 4.485 A 2.487 2.487 0 0 0 56.46 4.485 A 1.944 1.944 0 0 0 55.466 4.762 A 2.342 2.342 0 0 0 55.403 4.8 Q 54.903 5.113 54.582 5.766 A 3.416 3.416 0 0 0 54.578 5.775 Q 54.255 6.435 54.255 7.455 L 54.255 11.1 Z M 60.24 11.1 L 58.89 11.1 L 58.89 3.3 L 60.195 3.3 L 60.195 4.995 Q 60.39 4.5 60.72 4.073 Q 61.05 3.645 61.545 3.383 A 2.223 2.223 0 0 1 62.247 3.154 A 2.919 2.919 0 0 1 62.7 3.12 Q 62.925 3.12 63.15 3.143 A 2.846 2.846 0 0 1 63.308 3.163 Q 63.383 3.174 63.447 3.189 A 1.322 1.322 0 0 1 63.525 3.21 L 63.12 4.605 A 1.464 1.464 0 0 0 62.798 4.513 Q 62.649 4.488 62.48 4.485 A 2.487 2.487 0 0 0 62.445 4.485 A 1.944 1.944 0 0 0 61.451 4.762 A 2.342 2.342 0 0 0 61.388 4.8 Q 60.888 5.113 60.567 5.766 A 3.416 3.416 0 0 0 60.563 5.775 Q 60.24 6.435 60.24 7.455 L 60.24 11.1 Z M 67.71 11.28 Q 66.6 11.28 65.715 10.763 Q 64.83 10.245 64.328 9.323 A 4.118 4.118 0 0 1 63.865 7.853 A 5.223 5.223 0 0 1 63.825 7.2 A 5.251 5.251 0 0 1 63.923 6.164 A 3.903 3.903 0 0 1 64.335 5.025 Q 64.845 4.11 65.73 3.615 A 3.925 3.925 0 0 1 67.473 3.126 A 4.699 4.699 0 0 1 67.71 3.12 A 4.161 4.161 0 0 1 68.986 3.311 A 3.727 3.727 0 0 1 69.683 3.615 Q 70.56 4.11 71.078 5.018 A 3.869 3.869 0 0 1 71.522 6.284 A 5.181 5.181 0 0 1 71.595 7.17 Q 71.595 8.415 71.085 9.338 Q 70.575 10.26 69.698 10.77 Q 68.82 11.28 67.71 11.28 Z M 33.15 11.1 L 31.8 11.1 L 31.8 3.3 L 33.15 3.3 L 33.15 11.1 Z M 67.71 10.08 Q 68.895 10.08 69.555 9.278 A 2.82 2.82 0 0 0 70.128 8.064 A 4.066 4.066 0 0 0 70.215 7.2 A 3.206 3.206 0 0 0 70.031 6.107 A 3.002 3.002 0 0 0 69.885 5.768 A 2.88 2.88 0 0 0 69.259 4.932 A 2.726 2.726 0 0 0 68.993 4.717 Q 68.43 4.32 67.71 4.32 A 2.887 2.887 0 0 0 66.926 4.421 A 2.106 2.106 0 0 0 65.865 5.1 A 2.682 2.682 0 0 0 65.314 6.206 Q 65.205 6.646 65.205 7.17 Q 65.205 7.95 65.535 8.618 A 2.916 2.916 0 0 0 66.065 9.373 A 2.644 2.644 0 0 0 66.428 9.682 Q 66.99 10.08 67.71 10.08 Z M 37.185 5.31 L 37.185 9.15 Q 37.575 9.555 38.085 9.817 Q 38.595 10.08 39.195 10.08 Q 40.215 10.08 40.853 9.278 A 2.819 2.819 0 0 0 41.377 8.182 Q 41.476 7.778 41.488 7.306 A 5.183 5.183 0 0 0 41.49 7.17 A 4.207 4.207 0 0 0 41.431 6.444 Q 41.352 5.993 41.168 5.625 Q 40.845 4.98 40.313 4.635 Q 39.78 4.29 39.135 4.29 A 2.211 2.211 0 0 0 38.291 4.449 A 2.108 2.108 0 0 0 37.973 4.613 Q 37.532 4.887 37.271 5.2 A 1.941 1.941 0 0 0 37.185 5.31 Z M 27.765 9.135 L 27.765 5.265 A 2.377 2.377 0 0 0 27.448 4.939 Q 27.28 4.795 27.07 4.66 A 4.221 4.221 0 0 0 26.97 4.598 Q 26.46 4.29 25.845 4.29 A 2.242 2.242 0 0 0 25.102 4.41 A 2.008 2.008 0 0 0 24.585 4.68 Q 24.045 5.07 23.753 5.723 A 3.329 3.329 0 0 0 23.492 6.677 A 4.217 4.217 0 0 0 23.46 7.2 A 3.713 3.713 0 0 0 23.549 8.028 A 3.049 3.049 0 0 0 23.775 8.678 A 2.731 2.731 0 0 0 24.231 9.355 A 2.418 2.418 0 0 0 24.638 9.705 Q 25.185 10.08 25.86 10.08 Q 26.415 10.08 26.918 9.817 Q 27.42 9.555 27.765 9.135 Z M 9.75 6.66 L 14.025 6.66 A 3.653 3.653 0 0 0 13.964 5.972 Q 13.89 5.585 13.724 5.281 A 1.863 1.863 0 0 0 13.455 4.905 A 1.873 1.873 0 0 0 12.411 4.339 A 2.759 2.759 0 0 0 11.88 4.29 A 2.037 2.037 0 0 0 11.113 4.43 A 1.879 1.879 0 0 0 10.44 4.897 Q 9.966 5.403 9.803 6.288 A 4.803 4.803 0 0 0 9.75 6.66 Z M 45.585 6.66 L 49.86 6.66 A 3.653 3.653 0 0 0 49.799 5.972 Q 49.725 5.585 49.559 5.281 A 1.863 1.863 0 0 0 49.29 4.905 A 1.873 1.873 0 0 0 48.246 4.339 A 2.759 2.759 0 0 0 47.715 4.29 A 2.037 2.037 0 0 0 46.948 4.43 A 1.879 1.879 0 0 0 46.275 4.897 Q 45.801 5.403 45.638 6.288 A 4.803 4.803 0 0 0 45.585 6.66 Z M 31.821 1.693 A 0.896 0.896 0 0 0 32.475 1.965 A 1.226 1.226 0 0 0 32.7 1.945 A 0.847 0.847 0 0 0 33.165 1.702 A 0.867 0.867 0 0 0 33.379 1.332 A 1.127 1.127 0 0 0 33.42 1.02 A 1.091 1.091 0 0 0 33.42 1.008 A 0.909 0.909 0 0 0 33.143 0.352 A 1.109 1.109 0 0 0 33.134 0.344 A 0.909 0.909 0 0 0 32.475 0.075 A 1.24 1.24 0 0 0 32.227 0.099 A 0.849 0.849 0 0 0 31.785 0.33 A 0.838 0.838 0 0 0 31.564 0.725 A 1.198 1.198 0 0 0 31.53 1.02 A 0.899 0.899 0 0 0 31.604 1.383 A 0.996 0.996 0 0 0 31.808 1.68 A 1.12 1.12 0 0 0 31.821 1.693 Z" vector-effect="non-scaling-stroke"/></g></svg>
