<svg width="477.301" height="96" viewBox="0 0 477.301 96" xmlns="http://www.w3.org/2000/svg"><g id="logo" transform="translate(-113.000000, -89.000000)"><path d="M 48.901 6.4 L 46.001 14.4 Q 42.901 12.9 39.651 12 Q 36.858 11.227 33.215 11.118 A 40.705 40.705 0 0 0 32.001 11.1 A 21.173 21.173 0 0 0 24.096 12.555 A 19.981 19.981 0 0 0 20.551 14.4 A 21.167 21.167 0 0 0 14.185 20.981 A 26.978 26.978 0 0 0 12.601 23.9 Q 9.701 30.1 9.701 38.9 Q 9.701 47.3 12.551 53.6 A 25.677 25.677 0 0 0 16.137 59.428 A 21.423 21.423 0 0 0 20.451 63.4 A 19.703 19.703 0 0 0 31.596 66.897 A 23.894 23.894 0 0 0 32.001 66.9 A 33.715 33.715 0 0 0 35.972 66.678 Q 38.448 66.384 40.501 65.7 Q 44.101 64.5 47.501 62.6 L 50.401 70.5 A 37.561 37.561 0 0 1 45.906 72.544 A 47.894 47.894 0 0 1 41.951 73.85 A 33.592 33.592 0 0 1 36.985 74.841 Q 34.504 75.155 31.706 75.194 A 57.414 57.414 0 0 1 30.901 75.2 A 32.384 32.384 0 0 1 21.576 73.899 A 27.961 27.961 0 0 1 14.801 70.85 A 28.6 28.6 0 0 1 4.924 60.405 A 34.916 34.916 0 0 1 3.901 58.45 A 37.611 37.611 0 0 1 0.801 48.733 Q 0.026 44.467 0.001 39.614 A 62.816 62.816 0 0 1 0.001 39.3 Q 0.001 28.6 3.951 20.35 Q 7.901 12.1 15.151 7.45 A 29.371 29.371 0 0 1 27.831 3.039 A 37.292 37.292 0 0 1 32.101 2.8 A 45.639 45.639 0 0 1 37.159 3.068 A 35.2 35.2 0 0 1 41.201 3.75 A 38.224 38.224 0 0 1 48.675 6.294 A 35.605 35.605 0 0 1 48.901 6.4 Z M 185.101 27.2 L 185.101 0 L 194.101 0 L 194.101 61.4 A 12.15 12.15 0 0 0 194.202 63.036 Q 194.534 65.47 195.951 66.35 Q 197.801 67.5 200.001 67.5 L 198.101 74.5 Q 188.601 74.5 186.501 66.9 Q 184.301 70 180.351 72.6 Q 176.401 75.2 170.401 75.2 Q 164.001 75.2 158.701 71.9 A 22.692 22.692 0 0 1 151.163 64.109 A 27.622 27.622 0 0 1 150.301 62.55 A 27.533 27.533 0 0 1 147.712 54.608 A 37.221 37.221 0 0 1 147.201 48.3 A 33.94 33.94 0 0 1 148.09 40.386 A 27.963 27.963 0 0 1 150.351 34.2 A 27.291 27.291 0 0 1 154.97 27.609 A 24.186 24.186 0 0 1 158.751 24.4 Q 164.001 20.8 170.301 20.8 A 21.642 21.642 0 0 1 174.573 21.202 A 15.942 15.942 0 0 1 179.251 22.9 A 34.343 34.343 0 0 1 181.831 24.489 Q 183.054 25.324 184.026 26.174 A 16.59 16.59 0 0 1 185.101 27.2 Z M 247.901 96 L 238.901 96 L 238.901 35.3 A 11.015 11.015 0 0 0 238.774 33.564 Q 238.443 31.498 237.251 30.45 A 5.718 5.718 0 0 0 234.461 29.128 A 7.991 7.991 0 0 0 233.001 29 L 234.901 22 Q 240.762 22 243.823 24.964 A 10.15 10.15 0 0 1 246.401 29.3 Q 247.356 27.867 249.452 25.977 A 38.58 38.58 0 0 1 249.651 25.8 A 18.902 18.902 0 0 1 252.352 23.816 A 25.569 25.569 0 0 1 255.251 22.3 A 16.955 16.955 0 0 1 259.809 21.011 A 21.886 21.886 0 0 1 262.901 20.8 Q 268.901 20.8 274.151 23.95 A 22.329 22.329 0 0 1 281.329 30.917 A 27.464 27.464 0 0 1 282.601 33.05 Q 285.801 39 285.801 47.5 Q 285.801 55.8 282.601 62.05 A 27.846 27.846 0 0 1 278.667 67.882 A 23.029 23.029 0 0 1 274.251 71.75 Q 269.101 75.2 263.101 75.2 Q 258.501 75.2 254.501 73.35 A 30.352 30.352 0 0 1 251.084 71.511 Q 249.292 70.384 247.901 69.1 L 247.901 96 Z M 101.501 51.7 L 65.101 51.7 A 24.088 24.088 0 0 0 66.24 56.725 Q 67.576 60.538 70.201 63.1 Q 74.401 67.2 81.301 67.2 Q 85.801 67.2 89.401 66.25 Q 93.001 65.3 96.301 63.8 L 98.401 71.5 A 40.77 40.77 0 0 1 94.066 73.126 A 51.863 51.863 0 0 1 90.301 74.15 A 38.914 38.914 0 0 1 85.209 74.969 A 52.025 52.025 0 0 1 80.201 75.2 A 28.318 28.318 0 0 1 72.455 74.195 A 21.108 21.108 0 0 1 62.451 68.05 A 23.521 23.521 0 0 1 57.246 58.51 Q 55.901 53.845 55.901 48 A 35.359 35.359 0 0 1 56.733 40.178 A 28.84 28.84 0 0 1 58.851 34.05 A 24.642 24.642 0 0 1 63.867 26.968 A 22.887 22.887 0 0 1 67.101 24.35 A 21.048 21.048 0 0 1 77.36 20.878 A 26.205 26.205 0 0 1 79.401 20.8 Q 86.901 20.8 91.851 24.05 Q 96.801 27.3 99.301 32.8 A 28.185 28.185 0 0 1 101.727 42.664 A 33.434 33.434 0 0 1 101.801 44.9 A 75.204 75.204 0 0 1 101.51 51.597 A 69.426 69.426 0 0 1 101.501 51.7 Z M 340.401 51.7 L 304.001 51.7 A 24.088 24.088 0 0 0 305.14 56.725 Q 306.476 60.538 309.101 63.1 Q 313.301 67.2 320.201 67.2 Q 324.701 67.2 328.301 66.25 Q 331.901 65.3 335.201 63.8 L 337.301 71.5 A 40.77 40.77 0 0 1 332.966 73.126 A 51.863 51.863 0 0 1 329.201 74.15 A 38.914 38.914 0 0 1 324.109 74.969 A 52.025 52.025 0 0 1 319.101 75.2 A 28.318 28.318 0 0 1 311.355 74.195 A 21.108 21.108 0 0 1 301.351 68.05 A 23.521 23.521 0 0 1 296.146 58.51 Q 294.801 53.845 294.801 48 A 35.359 35.359 0 0 1 295.633 40.178 A 28.84 28.84 0 0 1 297.751 34.05 A 24.642 24.642 0 0 1 302.767 26.968 A 22.887 22.887 0 0 1 306.001 24.35 A 21.048 21.048 0 0 1 316.26 20.878 A 26.205 26.205 0 0 1 318.301 20.8 Q 325.801 20.8 330.751 24.05 Q 335.701 27.3 338.201 32.8 A 28.185 28.185 0 0 1 340.627 42.664 A 33.434 33.434 0 0 1 340.701 44.9 A 75.204 75.204 0 0 1 340.41 51.597 A 69.426 69.426 0 0 1 340.401 51.7 Z M 122.801 74 L 113.801 74 L 113.801 22 L 122.501 22 L 122.501 33.3 Q 123.801 30 126.001 27.15 Q 128.201 24.3 131.501 22.55 A 14.817 14.817 0 0 1 136.18 21.026 A 19.459 19.459 0 0 1 139.201 20.8 Q 140.701 20.8 142.201 20.95 A 18.972 18.972 0 0 1 143.255 21.084 Q 143.755 21.162 144.183 21.262 A 8.817 8.817 0 0 1 144.701 21.4 L 142.001 30.7 A 9.763 9.763 0 0 0 139.855 30.088 Q 138.76 29.9 137.501 29.9 A 12.958 12.958 0 0 0 130.871 31.746 A 15.609 15.609 0 0 0 130.451 32 Q 127.123 34.086 124.979 38.442 A 22.927 22.927 0 0 0 124.951 38.5 Q 123.188 42.107 122.87 47.328 A 39.09 39.09 0 0 0 122.801 49.7 L 122.801 74 Z M 361.701 74 L 352.701 74 L 352.701 22 L 361.401 22 L 361.401 33.3 Q 362.701 30 364.901 27.15 Q 367.101 24.3 370.401 22.55 A 14.817 14.817 0 0 1 375.08 21.026 A 19.459 19.459 0 0 1 378.101 20.8 Q 379.601 20.8 381.101 20.95 A 18.972 18.972 0 0 1 382.155 21.084 Q 382.655 21.162 383.083 21.262 A 8.817 8.817 0 0 1 383.601 21.4 L 380.901 30.7 A 9.763 9.763 0 0 0 378.755 30.088 Q 377.66 29.9 376.401 29.9 A 12.958 12.958 0 0 0 369.771 31.746 A 15.609 15.609 0 0 0 369.351 32 Q 366.023 34.086 363.879 38.442 A 22.927 22.927 0 0 0 363.851 38.5 Q 362.088 42.107 361.77 47.328 A 39.09 39.09 0 0 0 361.701 49.7 L 361.701 74 Z M 401.601 74 L 392.601 74 L 392.601 22 L 401.301 22 L 401.301 33.3 Q 402.601 30 404.801 27.15 Q 407.001 24.3 410.301 22.55 A 14.817 14.817 0 0 1 414.98 21.026 A 19.459 19.459 0 0 1 418.001 20.8 Q 419.501 20.8 421.001 20.95 A 18.972 18.972 0 0 1 422.055 21.084 Q 422.555 21.162 422.983 21.262 A 8.817 8.817 0 0 1 423.501 21.4 L 420.801 30.7 A 9.763 9.763 0 0 0 418.655 30.088 Q 417.56 29.9 416.301 29.9 A 12.958 12.958 0 0 0 409.671 31.746 A 15.609 15.609 0 0 0 409.251 32 Q 405.923 34.086 403.779 38.442 A 22.927 22.927 0 0 0 403.751 38.5 Q 401.988 42.107 401.67 47.328 A 39.09 39.09 0 0 0 401.601 49.7 L 401.601 74 Z M 438.101 71.75 A 24.559 24.559 0 0 0 442.699 73.84 Q 446.754 75.2 451.401 75.2 Q 458.801 75.2 464.651 71.8 Q 470.501 68.4 473.901 62.25 A 26.255 26.255 0 0 0 476.554 55.109 A 34.184 34.184 0 0 0 477.301 47.8 A 34.542 34.542 0 0 0 476.816 41.891 A 25.795 25.795 0 0 0 473.851 33.45 Q 470.401 27.4 464.551 24.1 A 24.848 24.848 0 0 0 459.909 22.073 A 27.738 27.738 0 0 0 451.401 20.8 A 31.325 31.325 0 0 0 449.821 20.839 A 26.169 26.169 0 0 0 438.201 24.1 Q 432.301 27.4 428.901 33.5 A 26.023 26.023 0 0 0 426.151 41.09 A 35.006 35.006 0 0 0 425.501 48 A 34.82 34.82 0 0 0 425.766 52.354 A 27.451 27.451 0 0 0 428.851 62.15 Q 432.201 68.3 438.101 71.75 Z M 221.001 74 L 212.001 74 L 212.001 22 L 221.001 22 L 221.001 74 Z M 451.401 67.2 Q 459.301 67.2 463.701 61.85 A 18.802 18.802 0 0 0 467.52 53.76 A 27.105 27.105 0 0 0 468.101 48 Q 468.101 42.8 465.901 38.45 A 19.198 19.198 0 0 0 461.729 32.881 A 18.17 18.17 0 0 0 459.951 31.45 Q 456.201 28.8 451.401 28.8 A 19.249 19.249 0 0 0 446.175 29.472 A 14.037 14.037 0 0 0 439.101 34 A 17.878 17.878 0 0 0 435.427 41.374 Q 434.701 44.306 434.701 47.8 Q 434.701 53 436.901 57.45 A 19.437 19.437 0 0 0 440.431 62.49 A 17.627 17.627 0 0 0 442.851 64.55 Q 446.601 67.2 451.401 67.2 Z M 247.901 35.4 L 247.901 61 Q 250.501 63.7 253.901 65.45 Q 257.301 67.2 261.301 67.2 Q 267.994 67.2 272.217 62.016 A 17.38 17.38 0 0 0 272.351 61.85 A 18.792 18.792 0 0 0 275.844 54.544 Q 276.506 51.855 276.589 48.708 A 34.555 34.555 0 0 0 276.601 47.8 Q 276.601 41.8 274.451 37.5 Q 272.301 33.2 268.751 30.9 Q 265.201 28.6 260.901 28.6 A 14.741 14.741 0 0 0 255.274 29.663 A 14.054 14.054 0 0 0 253.151 30.75 Q 249.701 32.9 247.901 35.4 Z M 185.101 60.9 L 185.101 35.1 A 15.847 15.847 0 0 0 182.99 32.927 Q 181.869 31.964 180.47 31.066 A 28.139 28.139 0 0 0 179.801 30.65 Q 176.401 28.6 172.301 28.6 A 14.946 14.946 0 0 0 167.345 29.4 A 13.385 13.385 0 0 0 163.901 31.2 A 16.69 16.69 0 0 0 158.731 37.35 A 19.924 19.924 0 0 0 158.351 38.15 A 22.19 22.19 0 0 0 156.611 44.514 A 28.113 28.113 0 0 0 156.401 48 A 24.757 24.757 0 0 0 156.993 53.519 A 20.327 20.327 0 0 0 158.501 57.85 A 18.205 18.205 0 0 0 161.541 62.363 A 16.122 16.122 0 0 0 164.251 64.7 Q 167.901 67.2 172.401 67.2 Q 176.101 67.2 179.451 65.45 Q 182.801 63.7 185.101 60.9 Z M 65.001 44.4 L 93.501 44.4 A 24.355 24.355 0 0 0 93.096 39.815 Q 92.601 37.231 91.496 35.207 A 12.422 12.422 0 0 0 89.701 32.7 A 12.488 12.488 0 0 0 82.74 28.924 A 18.395 18.395 0 0 0 79.201 28.6 A 13.58 13.58 0 0 0 74.089 29.535 A 12.524 12.524 0 0 0 69.601 32.65 Q 65.801 36.7 65.001 44.4 Z M 303.901 44.4 L 332.401 44.4 A 24.355 24.355 0 0 0 331.996 39.815 Q 331.501 37.231 330.396 35.207 A 12.422 12.422 0 0 0 328.601 32.7 A 12.488 12.488 0 0 0 321.64 28.924 A 18.395 18.395 0 0 0 318.101 28.6 A 13.58 13.58 0 0 0 312.989 29.535 A 12.524 12.524 0 0 0 308.501 32.65 Q 304.701 36.7 303.901 44.4 Z M 212.138 11.288 A 5.973 5.973 0 0 0 216.501 13.1 A 8.175 8.175 0 0 0 217.997 12.969 A 5.647 5.647 0 0 0 221.101 11.35 Q 222.801 9.6 222.801 6.8 A 7.26 7.26 0 0 0 222.8 6.719 A 6.06 6.06 0 0 0 220.951 2.35 A 7.395 7.395 0 0 0 220.893 2.293 A 6.059 6.059 0 0 0 216.501 0.5 A 8.264 8.264 0 0 0 214.845 0.658 A 5.661 5.661 0 0 0 211.901 2.2 A 5.588 5.588 0 0 0 210.43 4.832 A 7.987 7.987 0 0 0 210.201 6.8 A 5.992 5.992 0 0 0 210.693 9.219 A 6.643 6.643 0 0 0 212.051 11.2 A 7.466 7.466 0 0 0 212.138 11.288 Z" vector-effect="non-scaling-stroke"/></g></svg>
